<?xml version="1.0" standalone="no"?>
<!DOCTYPE svg PUBLIC "-//W3C//DTD SVG 20010904//EN"
 "http://www.w3.org/TR/2001/REC-SVG-20010904/DTD/svg10.dtd">
<svg version="1.0" xmlns="http://www.w3.org/2000/svg"
 width="728.000000pt" height="270.000000pt" viewBox="0 0 728.000000 270.000000"
 preserveAspectRatio="xMidYMid meet">

<g transform="translate(0.000000,270.000000) scale(0.100000,-0.100000)"
fill="#000000" stroke="none">
<path d="M0 1350 l0 -1350 3640 0 3640 0 0 1350 0 1350 -3640 0 -3640 0 0
-1350z m2917 1224 c38 -6 59 -35 44 -62 -8 -14 -24 -17 -93 -17 l-83 0 -3
-693 c-1 -496 1 -699 9 -714 10 -19 17 -20 88 -15 42 2 82 3 89 0 16 -6 16
-48 -1 -61 -9 -7 -126 -11 -350 -12 -305 0 -338 1 -344 16 -14 37 10 49 95 49
45 0 86 5 92 11 7 7 10 177 8 575 -2 310 -2 625 -1 700 l3 136 -51 7 c-28 4
-70 4 -94 0 -37 -5 -45 -3 -54 14 -7 14 -7 24 4 38 12 18 30 19 229 20 141 1
216 -2 216 -8 0 -7 4 -7 13 0 17 14 130 24 184 16z m-723 -14 c28 -10 34 -38
14 -58 -7 -7 -44 -12 -94 -12 -58 0 -85 -4 -93 -14 -8 -10 -11 -60 -10 -158 6
-427 2 -1129 -7 -1178 -6 -30 -16 -66 -24 -80 -48 -89 -160 -193 -258 -240
-59 -28 -71 -30 -178 -30 -135 0 -170 13 -241 89 -50 53 -57 73 -51 142 6 63
48 117 109 142 43 18 45 18 101 -3 62 -23 81 -45 100 -113 10 -39 9 -49 -10
-89 -12 -24 -22 -54 -22 -66 0 -19 6 -22 36 -22 28 0 48 10 84 40 44 37 48 44
56 102 4 35 9 189 10 343 0 154 1 287 1 295 2 107 -8 801 -12 818 -5 19 -12
22 -50 22 -25 0 -45 5 -45 10 0 6 -8 10 -17 10 -16 0 -16 -2 -3 -10 11 -7 -2
-10 -45 -8 -59 3 -60 3 -60 33 l0 30 335 5 c184 3 338 6 342 8 4 1 18 -2 32
-8z m1190 -4 l208 -1 32 -36 c17 -20 53 -74 81 -120 27 -46 99 -158 160 -249
60 -91 112 -169 114 -175 2 -5 15 -23 28 -39 13 -16 33 -47 45 -70 11 -22 29
-52 40 -66 10 -14 43 -63 73 -110 78 -122 84 -130 101 -130 14 0 15 47 10 450
-4 248 -9 457 -12 465 -4 11 -29 15 -97 17 -86 3 -92 4 -95 25 -2 13 4 25 15
31 21 12 432 10 451 -1 6 -5 12 -19 12 -31 0 -23 -3 -24 -95 -28 -52 -2 -97
-6 -100 -9 -3 -3 -5 -337 -5 -741 0 -705 -1 -736 -19 -752 -17 -16 -20 -15
-50 10 -18 15 -42 45 -54 67 -37 67 -43 77 -65 100 -12 12 -28 38 -36 57 -8
19 -39 68 -69 108 -30 40 -60 86 -67 102 -7 17 -16 30 -21 30 -4 0 -25 30 -45
68 -21 37 -49 81 -63 98 -24 28 -74 105 -125 188 -36 59 -71 111 -113 168 -24
31 -43 59 -43 63 0 4 -12 22 -27 40 -16 18 -40 53 -54 77 -116 193 -146 233
-163 219 -10 -8 -12 -159 -9 -653 2 -354 6 -649 8 -655 3 -9 31 -13 93 -13 90
0 112 -8 112 -42 0 -22 -44 -30 -120 -23 -30 2 -62 5 -70 6 -8 1 -52 -1 -97
-3 -56 -3 -83 -1 -83 6 0 6 -4 5 -9 -3 -6 -9 -10 -10 -16 -2 -5 9 -10 9 -20 1
-22 -19 -85 -1 -85 24 0 26 30 38 117 44 l88 7 0 694 c0 589 -2 697 -14 709
-11 11 -27 12 -65 7 -84 -11 -108 -9 -123 11 -18 24 -17 30 8 55 19 19 28 20
73 14 28 -5 145 -9 260 -9z m1901 -6 c10 -11 21 -36 26 -57 11 -54 132 -402
152 -440 9 -18 17 -39 17 -48 0 -8 14 -42 30 -75 17 -33 30 -69 30 -81 0 -11
6 -33 14 -47 8 -15 21 -45 29 -67 8 -22 24 -64 36 -94 12 -29 21 -61 21 -70 0
-9 11 -39 24 -68 13 -28 22 -54 18 -57 -3 -4 2 -12 11 -19 10 -7 19 -33 23
-62 4 -27 21 -77 39 -110 18 -33 38 -83 45 -112 16 -72 31 -82 125 -85 78 -3
80 -4 80 -28 l0 -25 -342 -2 c-188 -1 -345 2 -348 7 -3 4 4 6 15 3 14 -4 20 0
20 12 0 12 -5 15 -20 10 -15 -5 -18 -3 -14 9 5 12 26 16 97 18 104 3 102 0 67
88 -12 30 -24 64 -27 75 -2 11 -8 29 -13 40 -4 11 -18 52 -30 90 -12 39 -29
81 -37 94 l-15 24 -230 -6 c-127 -4 -232 -8 -233 -9 -9 -11 -46 -107 -65 -168
-13 -41 -28 -84 -35 -95 -7 -11 -18 -42 -25 -69 -18 -64 -8 -71 99 -69 46 1
79 -3 76 -8 -4 -5 0 -6 8 -3 20 7 29 -22 12 -40 -18 -18 -295 -23 -295 -5 0 8
-6 7 -17 -2 -15 -13 -16 -12 -11 9 l6 23 -22 -24 c-20 -22 -29 -24 -72 -20
-55 6 -74 17 -74 43 0 18 56 30 146 30 35 0 43 4 48 23 l7 22 9 -22 c13 -32
22 -29 10 3 -11 28 -7 42 85 314 29 87 54 142 68 156 17 14 21 24 14 35 -6 10
-1 34 17 76 14 35 26 68 26 75 0 11 51 140 93 238 6 14 11 30 12 36 0 6 6 22
12 35 6 13 19 47 28 74 10 28 21 59 25 70 23 55 100 292 100 308 0 24 44 67
68 67 10 0 27 -9 37 -20z m-3837 -2165 l3 -30 -26 28 c-15 16 -29 26 -32 23
-3 -3 -6 -42 -7 -88 -1 -70 -4 -83 -18 -86 -16 -3 -18 6 -18 86 0 49 2 91 5
94 3 2 24 4 47 4 40 -1 43 -3 46 -31z m104 20 c-3 -5 -7 -46 -7 -90 l0 -80
-30 -2 c-16 -1 -24 0 -17 3 8 4 12 32 12 89 0 57 -4 85 -12 89 -7 3 4 4 24 3
23 0 34 -5 30 -12z m100 2 c-4 -7 -6 -49 -3 -94 6 -81 6 -82 -16 -81 -20 2
-23 8 -23 45 0 40 -2 43 -27 44 l-28 2 28 4 c24 4 27 9 27 43 0 22 -5 40 -12
43 -7 2 4 5 25 5 27 0 35 -3 29 -11z m196 -16 l4 -24 -27 22 c-42 32 -55 27
-55 -19 0 -42 12 -52 29 -22 8 13 10 9 10 -23 0 -32 -2 -36 -10 -22 -17 29
-29 19 -29 -23 0 -22 4 -40 9 -40 24 0 60 21 64 37 4 17 4 17 12 0 14 -33 -12
-47 -84 -46 -36 0 -60 3 -53 6 8 3 12 32 12 95 l0 90 58 -4 c51 -3 57 -5 60
-27z m260 22 c-22 -5 -25 -68 -5 -76 25 -9 40 9 35 42 -5 32 -1 35 26 25 23
-9 20 -51 -4 -59 -22 -7 -27 -21 -9 -27 12 -4 39 -74 31 -82 -11 -12 -42 17
-42 39 0 24 -23 55 -41 55 -5 0 -9 -18 -9 -40 0 -24 5 -40 12 -40 25 0 -2 -12
-32 -14 -21 -2 -29 2 -26 11 3 7 6 48 7 91 l2 79 36 0 c20 0 28 -2 19 -4z
m270 -22 l4 -24 -27 22 c-46 36 -60 29 -55 -29 3 -34 9 -38 26 -16 13 18 14
17 14 -20 -1 -31 -3 -36 -11 -21 -17 29 -29 19 -29 -23 0 -33 3 -40 19 -40 11
0 29 12 40 27 25 31 36 26 22 -11 -10 -24 -15 -26 -66 -25 l-55 2 0 87 c0 61
-4 90 -12 94 -7 3 19 4 57 3 65 -2 70 -4 73 -26z m350 23 c14 -4 22 -14 22
-27 l0 -20 -22 20 c-13 11 -30 23 -38 26 -13 5 -13 5 0 6 8 0 25 -2 38 -5z
m211 -18 c12 -13 24 -39 27 -58 5 -27 1 -40 -21 -66 -15 -18 -31 -32 -37 -32
-7 0 -6 5 1 14 17 20 24 97 12 129 -8 21 -17 27 -40 27 -35 0 -41 -13 -41 -85
0 -35 5 -59 16 -69 9 -9 11 -16 4 -16 -22 0 -60 53 -60 84 0 30 21 72 44 88
23 16 73 8 95 -16z m171 -38 l40 -63 0 57 c0 36 -5 58 -12 61 -8 3 -6 6 5 6
15 1 17 -10 17 -94 0 -52 -2 -95 -4 -95 -2 0 -28 37 -57 82 -50 76 -54 80 -57
53 -2 -15 -2 -52 0 -82 2 -29 0 -53 -4 -53 -10 0 -11 174 -1 183 16 17 35 2
73 -55z m314 49 c-3 -8 4 -29 15 -47 l19 -32 17 32 c9 17 14 37 12 44 -3 6 3
13 13 13 15 1 13 -6 -12 -53 -21 -39 -29 -65 -26 -89 4 -36 -16 -51 -43 -34
-10 6 -11 9 -1 9 23 0 12 56 -21 111 l-33 55 33 2 c24 2 31 -1 27 -11z m182 0
c-25 -19 -33 -96 -13 -136 19 -38 9 -40 -24 -5 -35 37 -33 98 4 130 16 13 33
24 39 24 7 0 4 -6 -6 -13z m65 0 c36 -28 50 -88 29 -128 -6 -10 -24 -26 -40
-34 -38 -19 -54 -19 -17 1 25 14 27 19 27 77 0 65 -5 80 -30 90 -13 5 -13 5 0
6 8 0 22 -5 31 -12z m139 -71 c4 -61 9 -81 23 -90 12 -8 22 -8 35 0 13 9 18
29 22 90 4 59 9 80 20 82 12 3 13 1 3 -9 -8 -8 -13 -39 -13 -78 0 -73 -16
-101 -60 -101 -50 0 -63 20 -69 109 -6 78 -5 81 14 79 18 -3 21 -12 25 -82z
m352 -7 c-3 -77 -1 -89 13 -89 9 0 27 11 41 25 32 32 36 31 32 -2 -3 -27 -5
-28 -66 -28 l-64 0 -1 92 -2 92 25 -1 c25 -1 25 -1 22 -89z m190 79 c-16 -16
-16 -150 0 -166 9 -9 5 -12 -19 -12 -18 0 -35 5 -38 10 -3 6 -1 10 4 10 15 0
14 143 -1 158 -9 9 -3 12 27 12 30 0 36 -3 27 -12z m386 -8 c12 -11 25 -32 28
-45 9 -34 -2 -71 -28 -95 -25 -23 -47 -28 -24 -4 19 19 22 124 4 142 -18 18
-56 14 -68 -7 -20 -39 -9 -141 16 -141 7 0 15 -4 18 -9 12 -19 -33 2 -55 26
-73 77 32 205 109 133z m272 12 c0 -13 -47 -148 -58 -169 -8 -14 -12 -10 -22
25 -14 46 -25 47 -35 2 -11 -50 -21 -43 -50 38 -15 42 -35 83 -43 90 -14 10
-11 12 14 12 28 0 32 -4 48 -55 9 -30 21 -55 27 -55 14 0 11 48 -6 80 -15 29
-15 30 10 30 17 0 25 -6 26 -17 1 -17 2 -17 6 0 2 9 12 17 21 17 10 0 13 -3 6
-8 -18 -12 -23 -40 -13 -72 6 -16 14 -30 18 -30 4 0 15 23 24 52 13 40 14 54
4 60 -8 5 -7 8 6 8 9 0 17 -4 17 -8z m163 -52 l39 -55 -4 58 c-1 31 0 57 5 57
4 0 7 -44 7 -97 l0 -98 -46 70 c-66 100 -66 100 -62 12 2 -57 0 -77 -9 -77
-10 0 -13 25 -13 89 0 62 -4 91 -12 94 -7 2 3 4 22 3 30 -1 40 -9 73 -56z
m344 3 l38 -57 3 49 c2 32 -1 51 -10 56 -9 6 -3 9 17 9 18 0 25 -3 18 -8 -8
-5 -13 -41 -15 -95 l-3 -88 -55 83 -55 83 -3 -68 c-2 -46 1 -74 10 -85 11 -13
11 -14 -2 -10 -11 3 -16 25 -18 88 -2 52 -8 87 -15 92 -7 4 2 8 20 8 29 0 37
-7 70 -57z m261 30 c4 -28 -2 -29 -28 -3 -11 11 -29 20 -40 20 -17 0 -20 -7
-20 -40 0 -40 15 -54 26 -25 10 24 24 6 22 -25 -2 -26 -4 -28 -18 -15 -25 22
-30 19 -30 -20 0 -21 5 -35 13 -35 23 0 -17 -20 -41 -20 -18 0 -22 4 -18 18
12 39 9 154 -4 162 -8 5 18 8 61 7 69 -2 74 -4 77 -24z m192 -3 l0 -29 -27 27
-28 27 -3 -93 c-2 -82 -5 -93 -20 -90 -14 3 -17 16 -17 86 0 89 -10 102 -46
60 l-19 -23 4 25 c3 27 30 36 114 39 40 1 42 0 42 -29z m-4642 9 c-10 -5 -22
-17 -27 -27 -9 -14 -10 -13 -11 11 0 23 4 27 28 27 23 -1 24 -2 10 -11z m1192
7 c0 -3 13 -41 30 -85 28 -77 29 -81 10 -81 -13 0 -22 9 -26 25 -5 20 -13 25
-35 25 -24 0 -30 -5 -35 -28 -3 -16 -12 -29 -19 -29 -11 0 -11 4 0 21 7 12 23
51 36 89 13 37 27 67 31 67 5 0 8 -2 8 -4z m145 -23 c0 -22 5 -28 32 -34 45
-9 63 -26 63 -59 0 -37 -24 -55 -77 -55 -41 0 -43 1 -43 29 l0 29 21 -27 c23
-29 50 -34 69 -11 20 24 7 48 -30 58 -45 11 -60 24 -60 51 0 17 16 46 25 46 0
0 1 -12 0 -27z m1761 -139 c-3 -8 -17 -14 -31 -14 l-26 0 28 29 c28 28 43 21
29 -15z"/>
<path d="M2290 1039 c0 -5 5 -7 10 -4 6 3 10 8 10 11 0 2 -4 4 -10 4 -5 0 -10
-5 -10 -11z"/>
<path d="M2330 1020 c0 -5 5 -10 11 -10 5 0 7 5 4 10 -3 6 -8 10 -11 10 -2 0
-4 -4 -4 -10z"/>
<path d="M2920 1020 c0 -5 5 -10 10 -10 6 0 10 5 10 10 0 6 -4 10 -10 10 -5 0
-10 -4 -10 -10z"/>
<path d="M1530 2510 c-13 -8 -12 -10 3 -10 9 0 17 5 17 10 0 12 -1 12 -20 0z"/>
<path d="M4420 2525 c-7 -9 -10 -18 -6 -22 3 -3 6 -1 6 5 0 7 9 12 21 12 11 0
17 5 14 10 -9 14 -21 12 -35 -5z"/>
<path d="M4517 2520 c3 -11 7 -20 9 -20 2 0 4 9 4 20 0 11 -4 20 -9 20 -5 0
-7 -9 -4 -20z"/>
<path d="M5117 2073 c-12 -19 -77 -194 -77 -206 0 -7 -6 -21 -13 -32 -8 -11
-19 -41 -25 -66 -7 -26 -25 -75 -42 -110 -31 -66 -38 -113 -19 -125 14 -8 378
-11 392 -2 7 4 2 27 -16 70 -15 35 -27 71 -27 80 0 9 -11 38 -24 65 -13 26
-29 66 -36 88 -15 49 -41 124 -67 189 -18 48 -36 66 -46 49z"/>
<path d="M4761 1164 c0 -11 3 -14 6 -6 3 7 2 16 -1 19 -3 4 -6 -2 -5 -13z"/>
<path d="M4500 1025 c0 -8 4 -15 9 -15 5 0 11 7 15 15 3 9 0 15 -9 15 -8 0
-15 -7 -15 -15z"/>
<path d="M4550 1030 c0 -5 5 -10 10 -10 6 0 10 5 10 10 0 6 -4 10 -10 10 -5 0
-10 -4 -10 -10z"/>
<path d="M4855 1020 c-4 -6 5 -10 19 -10 14 0 26 5 26 10 0 6 -9 10 -19 10
-11 0 -23 -4 -26 -10z"/>
<path d="M2487 336 c-11 -28 -8 -36 13 -36 23 0 25 9 7 34 -13 18 -14 18 -20
2z"/>
</g>
</svg>
